<svg xmlns="http://www.w3.org/2000/svg" viewBox="0 0 256 256" role="img" aria-label="Locus lotus logo">
  <defs>
    <radialGradient id="logoGlow" cx="50%" cy="68%" r="52%">
      <stop offset="0" stop-color="#fff7b8" stop-opacity=".74"/>
      <stop offset=".55" stop-color="#f0abfc" stop-opacity=".24"/>
      <stop offset="1" stop-color="#c084fc" stop-opacity="0"/>
    </radialGradient>
    <filter id="softGlow" x="-45%" y="-45%" width="190%" height="190%">
      <feGaussianBlur stdDeviation="7"/>
    </filter>
  </defs>
  <ellipse cx="128" cy="154" rx="86" ry="76" fill="url(#logoGlow)" filter="url(#softGlow)"/>
  <g stroke="#f6e8ff" stroke-width="4.6" stroke-linejoin="round">
    <ellipse cx="80" cy="156" rx="29" ry="67" fill="#a78bfa" transform="rotate(-58 80 156)"/>
    <ellipse cx="176" cy="156" rx="29" ry="67" fill="#a78bfa" transform="rotate(58 176 156)"/>
    <ellipse cx="99" cy="126" rx="31" ry="75" fill="#c084fc" transform="rotate(-32 99 126)"/>
    <ellipse cx="157" cy="126" rx="31" ry="75" fill="#c084fc" transform="rotate(32 157 126)"/>
    <ellipse cx="128" cy="106" rx="33" ry="81" fill="#d8b4fe"/>
    <ellipse cx="111" cy="162" rx="30" ry="59" fill="#f3d3ff" transform="rotate(-18 111 162)"/>
    <ellipse cx="145" cy="162" rx="30" ry="59" fill="#f3d3ff" transform="rotate(18 145 162)"/>
    <ellipse cx="128" cy="171" rx="28" ry="52" fill="#f3d3ff"/>
  </g>
  <circle cx="128" cy="170" r="19" fill="#fff7b8" stroke="#ffffff" stroke-width="3.6"/>
  <circle cx="128" cy="170" r="7" fill="#fffef2"/>
  <path d="M128 189 C130 201 129 213 124 225" fill="none" stroke="#f0abfc" stroke-width="6" stroke-linecap="round"/>
  <path d="M54 210 C83 196 111 195 128 205 C145 195 173 196 202 210" fill="none" stroke="#9aa7ff" stroke-width="5.4" stroke-linecap="round" stroke-linejoin="round"/>
</svg>
