<svg xmlns="http://www.w3.org/2000/svg" viewBox="0 0 1024 1024" role="img" aria-label="Locus lotus app icon">
  <defs>
    <linearGradient id="bg" x1="0" y1="0" x2="1" y2="1">
      <stop offset="0" stop-color="#2f1454"/>
      <stop offset=".58" stop-color="#150a22"/>
      <stop offset="1" stop-color="#100718"/>
    </linearGradient>
    <filter id="soft" x="-20%" y="-20%" width="140%" height="140%"><feGaussianBlur stdDeviation="18"/></filter>
  </defs>
  <rect x="48" y="48" width="928" height="928" rx="212" fill="url(#bg)"/>
  <ellipse cx="512" cy="486" rx="344" ry="300" fill="#c084fc" opacity=".18" filter="url(#soft)"/>
  <ellipse cx="512" cy="780" rx="358" ry="72" fill="#818cf8" opacity=".22"/>
  <g stroke="#fae8ff" stroke-width="7" stroke-opacity=".5">
    <ellipse cx="512" cy="422" rx="97" ry="206" fill="#a855f7" transform="rotate(0 512 422)"/>
    <ellipse cx="392" cy="480" rx="92" ry="198" fill="#c084fc" transform="rotate(-30 392 480)"/>
    <ellipse cx="632" cy="480" rx="92" ry="198" fill="#c084fc" transform="rotate(30 632 480)"/>
    <ellipse cx="294" cy="584" rx="82" ry="178" fill="#818cf8" transform="rotate(-58 294 584)"/>
    <ellipse cx="730" cy="584" rx="82" ry="178" fill="#818cf8" transform="rotate(58 730 584)"/>
    <ellipse cx="442" cy="642" rx="88" ry="165" fill="#e879f9" transform="rotate(-18 442 642)"/>
    <ellipse cx="582" cy="642" rx="88" ry="165" fill="#e879f9" transform="rotate(18 582 642)"/>
    <ellipse cx="512" cy="678" rx="83" ry="146" fill="#f5d0fe"/>
  </g>
  <circle cx="512" cy="690" r="56" fill="#fff1a8" stroke="#fff" stroke-opacity=".66" stroke-width="5"/>
  <circle cx="512" cy="690" r="20" fill="#fffef2"/>
</svg>
